<?xml version="1.0" encoding="UTF-8" standalone="no"?>
<!-- Generator: Adobe Illustrator 19.0.0, SVG Export Plug-In . SVG Version: 6.00 Build 0)  -->

<svg
   xmlns:dc="http://purl.org/dc/elements/1.1/"
   xmlns:cc="http://creativecommons.org/ns#"
   xmlns:rdf="http://www.w3.org/1999/02/22-rdf-syntax-ns#"
   xmlns:svg="http://www.w3.org/2000/svg"
   xmlns="http://www.w3.org/2000/svg"
   xmlns:sodipodi="http://sodipodi.sourceforge.net/DTD/sodipodi-0.dtd"
   xmlns:inkscape="http://www.inkscape.org/namespaces/inkscape"
   version="1.1"
   id="Layer_1"
   x="0px"
   y="0px"
   viewBox="0 0 100 100"
   xml:space="preserve"
   inkscape:version="0.91 r13725"
   sodipodi:docname="Church.svg"
   width="100"
   height="100"><metadata
     id="metadata5385"><rdf:RDF><cc:Work
         rdf:about=""><dc:format>image/svg+xml</dc:format><dc:type
           rdf:resource="http://purl.org/dc/dcmitype/StillImage" /><dc:title></dc:title></cc:Work></rdf:RDF></metadata><defs
     id="defs5383" /><sodipodi:namedview
     pagecolor="#ffffff"
     bordercolor="#666666"
     borderopacity="1"
     objecttolerance="10"
     gridtolerance="10"
     guidetolerance="10"
     inkscape:pageopacity="0"
     inkscape:pageshadow="2"
     inkscape:window-width="1365"
     inkscape:window-height="718"
     id="namedview5381"
     showgrid="false"
     fit-margin-top="0"
     fit-margin-left="0"
     fit-margin-right="0"
     fit-margin-bottom="0"
     inkscape:zoom="4.5069472"
     inkscape:cx="74.252527"
     inkscape:cy="52.371562"
     inkscape:window-x="1"
     inkscape:window-y="0"
     inkscape:window-maximized="1"
     inkscape:current-layer="Layer_1" /><rect
     style="fill:#49a0ae;fill-opacity:1;fill-rule:nonzero;stroke:none;stroke-width:13.80000019;stroke-linecap:round;stroke-linejoin:miter;stroke-miterlimit:4;stroke-dasharray:none;stroke-dashoffset:0;stroke-opacity:1"
     id="rect5387"
     width="100"
     height="100"
     x="0"
     y="0"
     rx="10" /><path
     style="fill:#e4e1d3"
     d="m 74.118972,48.89246 -46.665149,0 c -0.521169,0 -0.945068,0.4239 -0.945068,0.94507 l 0,31.70864 c 0,0.52264 0.423899,0.94507 0.945068,0.94507 l 46.664305,0 c 0.522646,0 0.945068,-0.42243 0.945068,-0.94507 l 0,-31.70864 c 8.44e-4,-0.52117 -0.421578,-0.94507 -0.944224,-0.94507 z"
     id="path5321"
     inkscape:connector-curvature="0" /><g
     id="g5323"
     transform="matrix(0.21099985,0,0,0.21099985,0,-4.7851563e-7)"><path
       style="fill:#efeae9"
       d="m 371.122,238.984 c -0.131,-1.34 -0.891,-2.511 -1.957,-3.244 L 240.357,126.686 c -1.71,-1.448 -4.217,-1.418 -5.882,0.079 L 112.033,235.882 c -0.176,0.138 -0.337,0.288 -0.49,0.445 -1.014,1.01 -1.456,2.432 -1.242,3.82 l 0,10.604 c 0,2.477 2.002,4.486 4.479,4.486 l 251.875,0 c 2.477,0 4.486,-2.009 4.486,-4.486 l 0,-10.941 c 0.018,-0.272 0.011,-0.549 -0.019,-0.826 z"
       id="path5325"
       inkscape:connector-curvature="0" /><path
       style="fill:#efeae9"
       d="M 266.733,129.844 247.68,99.172 c -0.367,-0.602 -1.022,-0.965 -1.732,-0.965 l -1.433,0 0,-30.219 19.891,0 c 1.126,0 2.039,-0.909 2.039,-2.039 l 0,-12.239 c 0,-1.13 -0.913,-2.043 -2.039,-2.043 l -19.891,0 0,-19.884 c 0,-1.13 -0.913,-2.039 -2.039,-2.039 l -12.239,0 c -1.126,0 -2.039,0.909 -2.039,2.039 l 0,19.884 -19.891,0 c -1.126,0 -2.039,0.913 -2.039,2.043 l 0,12.239 c 0,1.13 0.913,2.039 2.039,2.039 l 19.891,0 0,30.219 -1.257,0 c -0.707,0 -1.366,0.363 -1.732,0.965 l -19.053,30.671 c -0.198,0.322 -0.307,0.696 -0.307,1.074 l 0,79.659 c 0,1.13 0.913,2.047 2.039,2.047 l 57.115,0 c 1.126,0 2.039,-0.917 2.039,-2.047 l 0,-79.659 c -0.002,-0.381 -0.11,-0.755 -0.309,-1.073 z"
       id="path5327"
       inkscape:connector-curvature="0" /></g><path
     style="fill:#ccc9b9"
     d="m 46.194619,71.48443 c 0,-0.61971 4.627437,-4.86903 4.627437,-4.86903 0,0 4.559496,4.24911 4.559496,4.86903 l 0,10.97579 -9.186722,0 0,-10.97579 z"
     id="path5329"
     inkscape:connector-curvature="0" /><path
     style="fill:#4d4c4c"
     d="m 46.98418,73.37224 c 0,-0.51315 1.816709,-1.88781 3.83239,-1.88781 2.015682,0 3.776265,1.37382 3.776265,1.88781 l 0,9.09051 -7.608655,0 0,-9.09051 z"
     id="path5331"
     inkscape:connector-curvature="0" /><path
     style="fill:#3b3838"
     d="m 46.98418,73.37224 c 0,-0.51315 1.816709,-1.88781 3.83239,-1.88781 l 0,10.97748 -3.83239,0 0,-9.08967 z"
     id="path5333"
     inkscape:connector-curvature="0" /><path
     style="fill:#98c7c8"
     d="m 69.611593,59.03923 c -1.190672,0 -2.15452,0.9647 -2.15452,2.15537 l 0,14.80966 4.311571,0 0,-14.80987 c 0,-1.1911 -0.966379,-2.15516 -2.157051,-2.15516 z"
     id="path5335"
     inkscape:connector-curvature="0" /><path
     style="fill:#9cd2d2"
     d="m 69.611593,59.03923 0.0015,16.96524 2.155363,0 0,-14.80966 c 2.11e-4,-1.19152 -0.966168,-2.15558 -2.15684,-2.15558 z"
     id="path5337"
     inkscape:connector-curvature="0" /><path
     style="fill:#98c7c8"
     d="m 61.291025,59.03923 c -1.190672,0 -2.155364,0.9647 -2.155364,2.15537 l 0,14.80966 4.313048,0 0,-14.80987 c -8.44e-4,-1.1911 -0.967223,-2.15516 -2.157684,-2.15516 z"
     id="path5339"
     inkscape:connector-curvature="0" /><path
     style="fill:#9cd2d2"
     d="m 61.291025,59.03923 0.0015,16.96524 2.155363,0 0,-14.80966 c 0,-1.19152 -0.966379,-2.15558 -2.15684,-2.15558 z"
     id="path5341"
     inkscape:connector-curvature="0" /><path
     style="fill:#98c7c8"
     d="m 40.530539,59.03923 c -1.190672,0 -2.15452,0.9647 -2.15452,2.15537 l 0,14.80966 4.311571,0 0,-14.80987 c 0,-1.1911 -0.966379,-2.15516 -2.157051,-2.15516 z"
     id="path5343"
     inkscape:connector-curvature="0" /><path
     style="fill:#9cd2d2"
     d="m 40.530539,59.03923 0.0015,16.96524 2.155363,0 0,-14.80966 c 2.11e-4,-1.19152 -0.966168,-2.15558 -2.15684,-2.15558 z"
     id="path5345"
     inkscape:connector-curvature="0" /><path
     style="fill:#98c7c8"
     d="m 32.209971,59.03923 c -1.190672,0 -2.155364,0.9647 -2.155364,2.15537 l 0,14.80966 4.313048,0 0,-14.80987 c -8.44e-4,-1.1911 -0.967223,-2.15516 -2.157684,-2.15516 z"
     id="path5347"
     inkscape:connector-curvature="0" /><path
     style="fill:#9cd2d2"
     d="m 32.209971,59.03923 0.0015,16.96524 2.155363,0 0,-14.80966 c 0,-1.19152 -0.966379,-2.15558 -2.15684,-2.15558 z"
     id="path5349"
     inkscape:connector-curvature="0" /><g
     id="g5351"
     transform="translate(0,-373.93399)" /><g
     id="g5353"
     transform="translate(0,-373.93399)" /><g
     id="g5355"
     transform="translate(0,-373.93399)" /><g
     id="g5357"
     transform="translate(0,-373.93399)" /><g
     id="g5359"
     transform="translate(0,-373.93399)" /><g
     id="g5361"
     transform="translate(0,-373.93399)" /><g
     id="g5363"
     transform="translate(0,-373.93399)" /><g
     id="g5365"
     transform="translate(0,-373.93399)" /><g
     id="g5367"
     transform="translate(0,-373.93399)" /><g
     id="g5369"
     transform="translate(0,-373.93399)" /><g
     id="g5371"
     transform="translate(0,-373.93399)" /><g
     id="g5373"
     transform="translate(0,-373.93399)" /><g
     id="g5375"
     transform="translate(0,-373.93399)" /><g
     id="g5377"
     transform="translate(0,-373.93399)" /><g
     id="g5379"
     transform="translate(0,-373.93399)" /></svg>